<?xml version="1.0" encoding="utf-8" standalone="no"?>
<!DOCTYPE svg PUBLIC "-//W3C//DTD SVG 1.1//EN"
  "http://www.w3.org/Graphics/SVG/1.1/DTD/svg11.dtd">
<!-- Created with matplotlib (http://matplotlib.org/) -->
<svg height="2880pt" version="1.1" viewBox="0 0 2880 2880" width="2880pt" xmlns="http://www.w3.org/2000/svg" xmlns:xlink="http://www.w3.org/1999/xlink">
 <defs>
  <style type="text/css">
*{stroke-linecap:butt;stroke-linejoin:round;}
  </style>
 </defs>
 <g id="figure_1">
  <g id="patch_1">
   <path d="M 0 2880 
L 2880 2880 
L 2880 0 
L 0 0 
z
" style="fill:#ffffff;"/>
  </g>
  <g id="axes_1">
   <g id="patch_2">
    <path d="M 360 2381.791711 
L 2592 2381.791711 
L 2592 527.008289 
L 360 527.008289 
z
" style="fill:#ffffff;"/>
   </g>
   <g id="patch_3">
    <a xlink:href="/Kmer/node.py?node=37049434-&amp;org=E02">
     <path d="M 371.592396 1454.4 
L 829.723902 1454.4 
L 829.723902 1417.304332 
L 371.592396 1417.304332 
z
" style="fill:#3869ff;fill-opacity:0.6;stroke:#ffffff;stroke-linejoin:miter;stroke-width:0.5;"/>
    </a>
    <a xlink:href="/Kmer/node.py?node=37049434-&amp;org=E02">
     <path d="M 371.592396 1454.4 
L 829.723902 1454.4 
L 829.723902 1417.304332 
L 371.592396 1417.304332 
z
" style="fill:#3869ff;fill-opacity:0.6;stroke:#000000;stroke-linejoin:miter;"/>
    </a>
    <g id="patch_4">
     <a xlink:href="/Kmer/node.py?node=23690514%2B&amp;org=E02">
      <path d="M 852.043902 1454.4 
L 862.477058 1454.4 
L 862.477058 1417.304332 
L 852.043902 1417.304332 
z
" style="fill:#3869ff;fill-opacity:0.6;stroke:#ffffff;stroke-linejoin:miter;stroke-width:0.5;"/>
     </a>
     <a xlink:href="/Kmer/node.py?node=23690514%2B&amp;org=E02">
      <path d="M 852.043902 1454.4 
L 862.477058 1454.4 
L 862.477058 1417.304332 
L 852.043902 1417.304332 
z
" style="fill:#3869ff;fill-opacity:0.6;stroke:#000000;stroke-linejoin:miter;"/>
     </a>
     <g id="patch_5">
      <a xlink:href="/Kmer/node.py?node=38455153%2B&amp;org=E02">
       <path d="M 884.797058 1454.4 
L 943.686432 1454.4 
L 943.686432 1417.304332 
L 884.797058 1417.304332 
z
" style="fill:#3869ff;fill-opacity:0.6;stroke:#ffffff;stroke-linejoin:miter;stroke-width:0.5;"/>
      </a>
      <a xlink:href="/Kmer/node.py?node=38455153%2B&amp;org=E02">
       <path d="M 884.797058 1454.4 
L 943.686432 1454.4 
L 943.686432 1417.304332 
L 884.797058 1417.304332 
z
" style="fill:#3869ff;fill-opacity:0.6;stroke:#000000;stroke-linejoin:miter;"/>
      </a>
      <g id="patch_6">
       <a xlink:href="/Kmer/node.py?node=19331528%2B&amp;org=E02">
        <path d="M 966.006432 1454.4 
L 975.975893 1454.4 
L 975.975893 1417.304332 
L 966.006432 1417.304332 
z
" style="fill:#3869ff;fill-opacity:0.6;stroke:#ffffff;stroke-linejoin:miter;stroke-width:0.5;"/>
       </a>
       <a xlink:href="/Kmer/node.py?node=19331528%2B&amp;org=E02">
        <path d="M 966.006432 1454.4 
L 975.975893 1454.4 
L 975.975893 1417.304332 
L 966.006432 1417.304332 
z
" style="fill:#3869ff;fill-opacity:0.6;stroke:#000000;stroke-linejoin:miter;"/>
       </a>
       <g id="patch_7">
        <a xlink:href="/Kmer/node.py?node=32642367-&amp;org=E02">
         <path d="M 998.295893 1763.685136 
L 1009.656441 1763.685136 
L 1009.656441 1726.589467 
L 998.295893 1726.589467 
z
" style="fill:#3869ff;fill-opacity:0.6;stroke:#ffffff;stroke-linejoin:miter;stroke-width:0.5;"/>
        </a>
        <a xlink:href="/Kmer/node.py?node=32642367-&amp;org=E02">
         <path d="M 998.295893 1763.685136 
L 1009.656441 1763.685136 
L 1009.656441 1726.589467 
L 998.295893 1726.589467 
z
" style="fill:#3869ff;fill-opacity:0.6;stroke:#000000;stroke-linejoin:miter;"/>
        </a>
        <g id="patch_8">
         <a xlink:href="/Kmer/node.py?node=42703593-&amp;org=E02">
          <path d="M 998.295893 1145.57856 
L 1241.968065 1145.57856 
L 1241.968065 1108.482892 
L 998.295893 1108.482892 
z
" style="fill:#3869ff;fill-opacity:0.6;stroke:#ffffff;stroke-linejoin:miter;stroke-width:0.5;"/>
         </a>
         <a xlink:href="/Kmer/node.py?node=42703593-&amp;org=E02">
          <path d="M 998.295893 1145.57856 
L 1241.968065 1145.57856 
L 1241.968065 1108.482892 
L 998.295893 1108.482892 
z
" style="fill:#3869ff;fill-opacity:0.6;stroke:#000000;stroke-linejoin:miter;"/>
         </a>
         <g id="text_1">
          <g id="patch_9">
           <path d="M 609.497211 1469.758416 
L 609.497211 1401.945916 
L 591.819086 1401.945916 
L 591.819086 1469.758416 
z
" style="fill:none;"/>
          </g>
          <!-- 37049434- -->
          <defs>
           <path d="M 46.578125 39.3125 
Q 53.953125 37.40625 57.78125 32.6875 
Q 61.625 27.984375 61.625 20.703125 
Q 61.625 9.859375 53.3125 4.21875 
Q 45.015625 -1.421875 29.109375 -1.421875 
Q 23.484375 -1.421875 17.84375 -0.515625 
Q 12.203125 0.390625 6.6875 2.203125 
L 6.6875 16.703125 
Q 11.96875 14.0625 17.15625 12.71875 
Q 22.359375 11.375 27.390625 11.375 
Q 34.859375 11.375 38.84375 13.953125 
Q 42.828125 16.546875 42.828125 21.390625 
Q 42.828125 26.375 38.75 28.9375 
Q 34.671875 31.5 26.703125 31.5 
L 19.1875 31.5 
L 19.1875 43.609375 
L 27.09375 43.609375 
Q 34.1875 43.609375 37.640625 45.828125 
Q 41.109375 48.046875 41.109375 52.59375 
Q 41.109375 56.78125 37.734375 59.078125 
Q 34.375 61.375 28.21875 61.375 
Q 23.6875 61.375 19.046875 60.34375 
Q 14.40625 59.328125 9.8125 57.328125 
L 9.8125 71.09375 
Q 15.375 72.65625 20.84375 73.4375 
Q 26.3125 74.21875 31.59375 74.21875 
Q 45.796875 74.21875 52.84375 69.546875 
Q 59.90625 64.890625 59.90625 55.515625 
Q 59.90625 49.125 56.53125 45.046875 
Q 53.171875 40.96875 46.578125 39.3125 
z
" id="DejaVuSans-Bold-33"/>
           <path d="M 6.6875 72.90625 
L 61.625 72.90625 
L 61.625 62.3125 
L 33.203125 0 
L 14.890625 0 
L 41.796875 59.078125 
L 6.6875 59.078125 
z
" id="DejaVuSans-Bold-37"/>
           <path d="M 46 36.53125 
Q 46 50.203125 43.4375 55.78125 
Q 40.875 61.375 34.8125 61.375 
Q 28.765625 61.375 26.171875 55.78125 
Q 23.578125 50.203125 23.578125 36.53125 
Q 23.578125 22.703125 26.171875 17.03125 
Q 28.765625 11.375 34.8125 11.375 
Q 40.828125 11.375 43.40625 17.03125 
Q 46 22.703125 46 36.53125 
z
M 64.796875 36.375 
Q 64.796875 18.265625 56.984375 8.421875 
Q 49.171875 -1.421875 34.8125 -1.421875 
Q 20.40625 -1.421875 12.59375 8.421875 
Q 4.78125 18.265625 4.78125 36.375 
Q 4.78125 54.546875 12.59375 64.375 
Q 20.40625 74.21875 34.8125 74.21875 
Q 49.171875 74.21875 56.984375 64.375 
Q 64.796875 54.546875 64.796875 36.375 
z
" id="DejaVuSans-Bold-30"/>
           <path d="M 36.8125 57.421875 
L 16.21875 26.90625 
L 36.8125 26.90625 
z
M 33.6875 72.90625 
L 54.59375 72.90625 
L 54.59375 26.90625 
L 64.984375 26.90625 
L 64.984375 13.28125 
L 54.59375 13.28125 
L 54.59375 0 
L 36.8125 0 
L 36.8125 13.28125 
L 4.5 13.28125 
L 4.5 29.390625 
z
" id="DejaVuSans-Bold-34"/>
           <path d="M 10.015625 1.609375 
L 10.015625 15.09375 
Q 14.5 12.984375 18.59375 11.9375 
Q 22.703125 10.890625 26.703125 10.890625 
Q 35.109375 10.890625 39.796875 15.546875 
Q 44.484375 20.21875 45.3125 29.390625 
Q 42 26.953125 38.234375 25.734375 
Q 34.46875 24.515625 30.078125 24.515625 
Q 18.890625 24.515625 12.03125 31.03125 
Q 5.171875 37.546875 5.171875 48.1875 
Q 5.171875 59.96875 12.8125 67.046875 
Q 20.453125 74.125 33.296875 74.125 
Q 47.5625 74.125 55.375 64.5 
Q 63.1875 54.890625 63.1875 37.3125 
Q 63.1875 19.234375 54.046875 8.90625 
Q 44.921875 -1.421875 29 -1.421875 
Q 23.875 -1.421875 19.1875 -0.65625 
Q 14.5 0.09375 10.015625 1.609375 
z
M 33.203125 36.71875 
Q 38.140625 36.71875 40.625 39.90625 
Q 43.109375 43.109375 43.109375 49.515625 
Q 43.109375 55.859375 40.625 59.078125 
Q 38.140625 62.3125 33.203125 62.3125 
Q 28.265625 62.3125 25.78125 59.078125 
Q 23.296875 55.859375 23.296875 49.515625 
Q 23.296875 43.109375 25.78125 39.90625 
Q 28.265625 36.71875 33.203125 36.71875 
z
" id="DejaVuSans-Bold-39"/>
           <path d="M 5.421875 35.890625 
L 36.078125 35.890625 
L 36.078125 21.6875 
L 5.421875 21.6875 
z
" id="DejaVuSans-Bold-2d"/>
          </defs>
          <g transform="translate(603.417524 1465.758416)rotate(-90)scale(0.1 -0.1)">
           <use xlink:href="#DejaVuSans-Bold-33"/>
           <use x="69.580078" xlink:href="#DejaVuSans-Bold-37"/>
           <use x="139.160156" xlink:href="#DejaVuSans-Bold-30"/>
           <use x="208.740234" xlink:href="#DejaVuSans-Bold-34"/>
           <use x="278.320312" xlink:href="#DejaVuSans-Bold-39"/>
           <use x="347.900391" xlink:href="#DejaVuSans-Bold-34"/>
           <use x="417.480469" xlink:href="#DejaVuSans-Bold-33"/>
           <use x="487.060547" xlink:href="#DejaVuSans-Bold-34"/>
           <use x="556.640625" xlink:href="#DejaVuSans-Bold-2d"/>
          </g>
         </g>
         <g id="text_2">
          <g id="patch_10">
           <path d="M 866.099542 1471.87326 
L 866.099542 1399.831072 
L 848.421417 1399.831072 
L 848.421417 1471.87326 
z
" style="fill:none;"/>
          </g>
          <!-- 23690514+ -->
          <defs>
           <path d="M 28.8125 13.8125 
L 60.890625 13.8125 
L 60.890625 0 
L 7.90625 0 
L 7.90625 13.8125 
L 34.515625 37.3125 
Q 38.09375 40.53125 39.796875 43.609375 
Q 41.5 46.6875 41.5 50 
Q 41.5 55.125 38.0625 58.25 
Q 34.625 61.375 28.90625 61.375 
Q 24.515625 61.375 19.28125 59.5 
Q 14.0625 57.625 8.109375 53.90625 
L 8.109375 69.921875 
Q 14.453125 72.015625 20.65625 73.109375 
Q 26.859375 74.21875 32.8125 74.21875 
Q 45.90625 74.21875 53.15625 68.453125 
Q 60.40625 62.703125 60.40625 52.390625 
Q 60.40625 46.4375 57.328125 41.28125 
Q 54.25 36.140625 44.390625 27.484375 
z
" id="DejaVuSans-Bold-32"/>
           <path d="M 36.1875 35.984375 
Q 31.25 35.984375 28.78125 32.78125 
Q 26.3125 29.59375 26.3125 23.1875 
Q 26.3125 16.796875 28.78125 13.59375 
Q 31.25 10.40625 36.1875 10.40625 
Q 41.15625 10.40625 43.625 13.59375 
Q 46.09375 16.796875 46.09375 23.1875 
Q 46.09375 29.59375 43.625 32.78125 
Q 41.15625 35.984375 36.1875 35.984375 
z
M 59.421875 71 
L 59.421875 57.515625 
Q 54.78125 59.71875 50.671875 60.765625 
Q 46.578125 61.8125 42.671875 61.8125 
Q 34.28125 61.8125 29.59375 57.140625 
Q 24.90625 52.484375 24.125 43.3125 
Q 27.34375 45.703125 31.09375 46.890625 
Q 34.859375 48.09375 39.3125 48.09375 
Q 50.484375 48.09375 57.34375 41.546875 
Q 64.203125 35.015625 64.203125 24.421875 
Q 64.203125 12.703125 56.53125 5.640625 
Q 48.875 -1.421875 35.984375 -1.421875 
Q 21.78125 -1.421875 13.984375 8.171875 
Q 6.203125 17.78125 6.203125 35.40625 
Q 6.203125 53.46875 15.3125 63.796875 
Q 24.421875 74.125 40.28125 74.125 
Q 45.3125 74.125 50.046875 73.34375 
Q 54.78125 72.5625 59.421875 71 
z
" id="DejaVuSans-Bold-36"/>
           <path d="M 10.59375 72.90625 
L 57.328125 72.90625 
L 57.328125 59.078125 
L 25.59375 59.078125 
L 25.59375 47.796875 
Q 27.734375 48.390625 29.90625 48.703125 
Q 32.078125 49.03125 34.421875 49.03125 
Q 47.75 49.03125 55.171875 42.359375 
Q 62.59375 35.6875 62.59375 23.78125 
Q 62.59375 11.96875 54.515625 5.265625 
Q 46.4375 -1.421875 32.078125 -1.421875 
Q 25.875 -1.421875 19.796875 -0.21875 
Q 13.71875 0.984375 7.71875 3.421875 
L 7.71875 18.21875 
Q 13.671875 14.796875 19.015625 13.078125 
Q 24.359375 11.375 29.109375 11.375 
Q 35.9375 11.375 39.859375 14.71875 
Q 43.796875 18.0625 43.796875 23.78125 
Q 43.796875 29.546875 39.859375 32.859375 
Q 35.9375 36.1875 29.109375 36.1875 
Q 25.046875 36.1875 20.453125 35.125 
Q 15.875 34.078125 10.59375 31.890625 
z
" id="DejaVuSans-Bold-35"/>
           <path d="M 11.71875 12.984375 
L 28.328125 12.984375 
L 28.328125 60.109375 
L 11.28125 56.59375 
L 11.28125 69.390625 
L 28.21875 72.90625 
L 46.09375 72.90625 
L 46.09375 12.984375 
L 62.703125 12.984375 
L 62.703125 0 
L 11.71875 0 
z
" id="DejaVuSans-Bold-31"/>
           <path d="M 47.703125 62.703125 
L 47.703125 37.109375 
L 73.1875 37.109375 
L 73.1875 25.59375 
L 47.703125 25.59375 
L 47.703125 0 
L 36.078125 0 
L 36.078125 25.59375 
L 10.59375 25.59375 
L 10.59375 37.109375 
L 36.078125 37.109375 
L 36.078125 62.703125 
z
" id="DejaVuSans-Bold-2b"/>
          </defs>
          <g transform="translate(860.019855 1467.87326)rotate(-90)scale(0.1 -0.1)">
           <use xlink:href="#DejaVuSans-Bold-32"/>
           <use x="69.580078" xlink:href="#DejaVuSans-Bold-33"/>
           <use x="139.160156" xlink:href="#DejaVuSans-Bold-36"/>
           <use x="208.740234" xlink:href="#DejaVuSans-Bold-39"/>
           <use x="278.320312" xlink:href="#DejaVuSans-Bold-30"/>
           <use x="347.900391" xlink:href="#DejaVuSans-Bold-35"/>
           <use x="417.480469" xlink:href="#DejaVuSans-Bold-31"/>
           <use x="487.060547" xlink:href="#DejaVuSans-Bold-34"/>
           <use x="556.640625" xlink:href="#DejaVuSans-Bold-2b"/>
          </g>
         </g>
         <g id="text_3">
          <g id="patch_11">
           <path d="M 923.080808 1471.87326 
L 923.080808 1399.831072 
L 905.402683 1399.831072 
L 905.402683 1471.87326 
z
" style="fill:none;"/>
          </g>
          <!-- 38455153+ -->
          <defs>
           <path d="M 34.8125 32.625 
Q 29.546875 32.625 26.703125 29.734375 
Q 23.875 26.859375 23.875 21.484375 
Q 23.875 16.109375 26.703125 13.25 
Q 29.546875 10.40625 34.8125 10.40625 
Q 40.046875 10.40625 42.828125 13.25 
Q 45.609375 16.109375 45.609375 21.484375 
Q 45.609375 26.90625 42.828125 29.765625 
Q 40.046875 32.625 34.8125 32.625 
z
M 21.09375 38.8125 
Q 14.453125 40.828125 11.078125 44.96875 
Q 7.71875 49.125 7.71875 55.328125 
Q 7.71875 64.546875 14.59375 69.375 
Q 21.484375 74.21875 34.8125 74.21875 
Q 48.046875 74.21875 54.921875 69.40625 
Q 61.8125 64.59375 61.8125 55.328125 
Q 61.8125 49.125 58.421875 44.96875 
Q 55.03125 40.828125 48.390625 38.8125 
Q 55.8125 36.765625 59.59375 32.15625 
Q 63.375 27.546875 63.375 20.515625 
Q 63.375 9.671875 56.171875 4.125 
Q 48.96875 -1.421875 34.8125 -1.421875 
Q 20.609375 -1.421875 13.359375 4.125 
Q 6.109375 9.671875 6.109375 20.515625 
Q 6.109375 27.546875 9.890625 32.15625 
Q 13.671875 36.765625 21.09375 38.8125 
z
M 25.484375 53.421875 
Q 25.484375 49.078125 27.90625 46.734375 
Q 30.328125 44.390625 34.8125 44.390625 
Q 39.203125 44.390625 41.59375 46.734375 
Q 44 49.078125 44 53.421875 
Q 44 57.765625 41.59375 60.078125 
Q 39.203125 62.40625 34.8125 62.40625 
Q 30.328125 62.40625 27.90625 60.0625 
Q 25.484375 57.71875 25.484375 53.421875 
z
" id="DejaVuSans-Bold-38"/>
          </defs>
          <g transform="translate(917.00112 1467.87326)rotate(-90)scale(0.1 -0.1)">
           <use xlink:href="#DejaVuSans-Bold-33"/>
           <use x="69.580078" xlink:href="#DejaVuSans-Bold-38"/>
           <use x="139.160156" xlink:href="#DejaVuSans-Bold-34"/>
           <use x="208.740234" xlink:href="#DejaVuSans-Bold-35"/>
           <use x="278.320312" xlink:href="#DejaVuSans-Bold-35"/>
           <use x="347.900391" xlink:href="#DejaVuSans-Bold-31"/>
           <use x="417.480469" xlink:href="#DejaVuSans-Bold-35"/>
           <use x="487.060547" xlink:href="#DejaVuSans-Bold-33"/>
           <use x="556.640625" xlink:href="#DejaVuSans-Bold-2b"/>
          </g>
         </g>
         <g id="text_4">
          <g id="patch_12">
           <path d="M 979.830225 1471.87326 
L 979.830225 1399.831072 
L 962.1521 1399.831072 
L 962.1521 1471.87326 
z
" style="fill:none;"/>
          </g>
          <!-- 19331528+ -->
          <g transform="translate(973.750537 1467.87326)rotate(-90)scale(0.1 -0.1)">
           <use xlink:href="#DejaVuSans-Bold-31"/>
           <use x="69.580078" xlink:href="#DejaVuSans-Bold-39"/>
           <use x="139.160156" xlink:href="#DejaVuSans-Bold-33"/>
           <use x="208.740234" xlink:href="#DejaVuSans-Bold-33"/>
           <use x="278.320312" xlink:href="#DejaVuSans-Bold-31"/>
           <use x="347.900391" xlink:href="#DejaVuSans-Bold-35"/>
           <use x="417.480469" xlink:href="#DejaVuSans-Bold-32"/>
           <use x="487.060547" xlink:href="#DejaVuSans-Bold-38"/>
           <use x="556.640625" xlink:href="#DejaVuSans-Bold-2b"/>
          </g>
         </g>
         <g id="text_5">
          <g id="patch_13">
           <path d="M 1012.81523 1779.043551 
L 1012.81523 1711.231051 
L 995.137105 1711.231051 
L 995.137105 1779.043551 
z
" style="fill:none;"/>
          </g>
          <!-- 32642367- -->
          <g transform="translate(1006.735542 1775.043551)rotate(-90)scale(0.1 -0.1)">
           <use xlink:href="#DejaVuSans-Bold-33"/>
           <use x="69.580078" xlink:href="#DejaVuSans-Bold-32"/>
           <use x="139.160156" xlink:href="#DejaVuSans-Bold-36"/>
           <use x="208.740234" xlink:href="#DejaVuSans-Bold-34"/>
           <use x="278.320312" xlink:href="#DejaVuSans-Bold-32"/>
           <use x="347.900391" xlink:href="#DejaVuSans-Bold-33"/>
           <use x="417.480469" xlink:href="#DejaVuSans-Bold-36"/>
           <use x="487.060547" xlink:href="#DejaVuSans-Bold-37"/>
           <use x="556.640625" xlink:href="#DejaVuSans-Bold-2d"/>
          </g>
         </g>
         <g id="text_6">
          <g id="patch_14">
           <path d="M 1128.971041 1160.936976 
L 1128.971041 1093.124476 
L 1111.292916 1093.124476 
L 1111.292916 1160.936976 
z
" style="fill:none;"/>
          </g>
          <!-- 42703593- -->
          <g transform="translate(1122.891354 1156.936976)rotate(-90)scale(0.1 -0.1)">
           <use xlink:href="#DejaVuSans-Bold-34"/>
           <use x="69.580078" xlink:href="#DejaVuSans-Bold-32"/>
           <use x="139.160156" xlink:href="#DejaVuSans-Bold-37"/>
           <use x="208.740234" xlink:href="#DejaVuSans-Bold-30"/>
           <use x="278.320312" xlink:href="#DejaVuSans-Bold-33"/>
           <use x="347.900391" xlink:href="#DejaVuSans-Bold-35"/>
           <use x="417.480469" xlink:href="#DejaVuSans-Bold-39"/>
           <use x="487.060547" xlink:href="#DejaVuSans-Bold-33"/>
           <use x="556.640625" xlink:href="#DejaVuSans-Bold-2d"/>
          </g>
         </g>
         <g id="matplotlib.axis_1">
          <g id="xtick_1">
           <g id="line2d_1">
            <defs>
             <path d="M 0 0 
L 0 3.5 
" id="mf6271d3d38" style="stroke:#000000;stroke-width:0.8;"/>
            </defs>
            <g>
             <use style="stroke:#000000;stroke-width:0.8;" x="360" xlink:href="#mf6271d3d38" y="2381.791711"/>
            </g>
           </g>
           <g id="text_7">
            <!-- 0 K -->
            <defs>
             <path d="M 31.78125 66.40625 
Q 24.171875 66.40625 20.328125 58.90625 
Q 16.5 51.421875 16.5 36.375 
Q 16.5 21.390625 20.328125 13.890625 
Q 24.171875 6.390625 31.78125 6.390625 
Q 39.453125 6.390625 43.28125 13.890625 
Q 47.125 21.390625 47.125 36.375 
Q 47.125 51.421875 43.28125 58.90625 
Q 39.453125 66.40625 31.78125 66.40625 
z
M 31.78125 74.21875 
Q 44.046875 74.21875 50.515625 64.515625 
Q 56.984375 54.828125 56.984375 36.375 
Q 56.984375 17.96875 50.515625 8.265625 
Q 44.046875 -1.421875 31.78125 -1.421875 
Q 19.53125 -1.421875 13.0625 8.265625 
Q 6.59375 17.96875 6.59375 36.375 
Q 6.59375 54.828125 13.0625 64.515625 
Q 19.53125 74.21875 31.78125 74.21875 
z
" id="DejaVuSans-30"/>
             <path id="DejaVuSans-20"/>
             <path d="M 9.8125 72.90625 
L 19.671875 72.90625 
L 19.671875 42.09375 
L 52.390625 72.90625 
L 65.09375 72.90625 
L 28.90625 38.921875 
L 67.671875 0 
L 54.6875 0 
L 19.671875 35.109375 
L 19.671875 0 
L 9.8125 0 
z
" id="DejaVuSans-4b"/>
            </defs>
            <g transform="translate(351.950781 2396.390148)scale(0.1 -0.1)">
             <use xlink:href="#DejaVuSans-30"/>
             <use x="63.623047" xlink:href="#DejaVuSans-20"/>
             <use x="95.410156" xlink:href="#DejaVuSans-4b"/>
            </g>
           </g>
          </g>
          <g id="xtick_2">
           <g id="line2d_2">
            <g>
             <use style="stroke:#000000;stroke-width:0.8;" x="1519.239639" xlink:href="#mf6271d3d38" y="2381.791711"/>
            </g>
           </g>
           <g id="text_8">
            <!-- 5 K -->
            <defs>
             <path d="M 10.796875 72.90625 
L 49.515625 72.90625 
L 49.515625 64.59375 
L 19.828125 64.59375 
L 19.828125 46.734375 
Q 21.96875 47.46875 24.109375 47.828125 
Q 26.265625 48.1875 28.421875 48.1875 
Q 40.625 48.1875 47.75 41.5 
Q 54.890625 34.8125 54.890625 23.390625 
Q 54.890625 11.625 47.5625 5.09375 
Q 40.234375 -1.421875 26.90625 -1.421875 
Q 22.3125 -1.421875 17.546875 -0.640625 
Q 12.796875 0.140625 7.71875 1.703125 
L 7.71875 11.625 
Q 12.109375 9.234375 16.796875 8.0625 
Q 21.484375 6.890625 26.703125 6.890625 
Q 35.15625 6.890625 40.078125 11.328125 
Q 45.015625 15.765625 45.015625 23.390625 
Q 45.015625 31 40.078125 35.4375 
Q 35.15625 39.890625 26.703125 39.890625 
Q 22.75 39.890625 18.8125 39.015625 
Q 14.890625 38.140625 10.796875 36.28125 
z
" id="DejaVuSans-35"/>
            </defs>
            <g transform="translate(1511.19042 2396.390148)scale(0.1 -0.1)">
             <use xlink:href="#DejaVuSans-35"/>
             <use x="63.623047" xlink:href="#DejaVuSans-20"/>
             <use x="95.410156" xlink:href="#DejaVuSans-4b"/>
            </g>
           </g>
          </g>
          <g id="xtick_3">
           <g id="line2d_3">
            <defs>
             <path d="M 0 0 
L 0 2 
" id="m7de4e26ca0" style="stroke:#000000;stroke-width:0.6;"/>
            </defs>
            <g>
             <use style="stroke:#000000;stroke-width:0.6;" x="591.847928" xlink:href="#m7de4e26ca0" y="2381.791711"/>
            </g>
           </g>
          </g>
          <g id="xtick_4">
           <g id="line2d_4">
            <g>
             <use style="stroke:#000000;stroke-width:0.6;" x="823.695855" xlink:href="#m7de4e26ca0" y="2381.791711"/>
            </g>
           </g>
          </g>
          <g id="xtick_5">
           <g id="line2d_5">
            <g>
             <use style="stroke:#000000;stroke-width:0.6;" x="1055.543783" xlink:href="#m7de4e26ca0" y="2381.791711"/>
            </g>
           </g>
          </g>
          <g id="xtick_6">
           <g id="line2d_6">
            <g>
             <use style="stroke:#000000;stroke-width:0.6;" x="1287.391711" xlink:href="#m7de4e26ca0" y="2381.791711"/>
            </g>
           </g>
          </g>
          <g id="xtick_7">
           <g id="line2d_7">
            <g>
             <use style="stroke:#000000;stroke-width:0.6;" x="1751.087566" xlink:href="#m7de4e26ca0" y="2381.791711"/>
            </g>
           </g>
          </g>
          <g id="xtick_8">
           <g id="line2d_8">
            <g>
             <use style="stroke:#000000;stroke-width:0.6;" x="1982.935494" xlink:href="#m7de4e26ca0" y="2381.791711"/>
            </g>
           </g>
          </g>
          <g id="xtick_9">
           <g id="line2d_9">
            <g>
             <use style="stroke:#000000;stroke-width:0.6;" x="2214.783422" xlink:href="#m7de4e26ca0" y="2381.791711"/>
            </g>
           </g>
          </g>
          <g id="xtick_10">
           <g id="line2d_10">
            <g>
             <use style="stroke:#000000;stroke-width:0.6;" x="2446.631349" xlink:href="#m7de4e26ca0" y="2381.791711"/>
            </g>
           </g>
          </g>
         </g>
         <g id="matplotlib.axis_2">
          <g id="ytick_1">
           <g id="line2d_11">
            <defs>
             <path d="M 0 0 
L -3.5 0 
" id="m1413814759" style="stroke:#000000;stroke-width:0.8;"/>
            </defs>
            <g>
             <use style="stroke:#000000;stroke-width:0.8;" x="360" xlink:href="#m1413814759" y="2381.791711"/>
            </g>
           </g>
           <g id="text_9">
            <!-- 0 K -->
            <g transform="translate(336.901563 2385.59093)scale(0.1 -0.1)">
             <use xlink:href="#DejaVuSans-30"/>
             <use x="63.623047" xlink:href="#DejaVuSans-20"/>
             <use x="95.410156" xlink:href="#DejaVuSans-4b"/>
            </g>
           </g>
          </g>
         </g>
         <g id="patch_15">
          <path d="M 360 2381.791711 
L 360 527.008289 
" style="fill:none;stroke:#000000;stroke-linecap:square;stroke-linejoin:miter;stroke-width:0.8;"/>
         </g>
         <g id="patch_16">
          <path d="M 2592 2381.791711 
L 2592 527.008289 
" style="fill:none;stroke:#000000;stroke-linecap:square;stroke-linejoin:miter;stroke-width:0.8;"/>
         </g>
         <g id="patch_17">
          <path d="M 360 2381.791711 
L 2592 2381.791711 
" style="fill:none;stroke:#000000;stroke-linecap:square;stroke-linejoin:miter;stroke-width:0.8;"/>
         </g>
         <g id="patch_18">
          <path d="M 360 527.008289 
L 2592 527.008289 
" style="fill:none;stroke:#000000;stroke-linecap:square;stroke-linejoin:miter;stroke-width:0.8;"/>
         </g>
         <g id="patch_19">
          <a xlink:href="/Kmer/Path.py?start=37049434-&amp;end=23690514%2B&amp;org=E02">
           <path clip-path="url(#p0e2927f173)" d="M 829.723902 1435.852166 
L 829.723902 1440.489124 
L 852.043902 1440.489124 
L 852.043902 1435.852166 
z
" style="stroke:#000000;stroke-linejoin:miter;"/>
          </a>
         </g>
         <g id="patch_20">
          <a xlink:href="/Kmer/Path.py?start=38455153%2B&amp;end=19331528%2B&amp;org=E02">
           <path clip-path="url(#p0e2927f173)" d="M 943.686432 1435.852166 
L 943.686432 1440.489124 
L 966.006432 1440.489124 
L 966.006432 1435.852166 
z
" style="stroke:#000000;stroke-linejoin:miter;"/>
          </a>
         </g>
         <g id="patch_21">
          <a xlink:href="/Kmer/Path.py?start=23690514%2B&amp;end=38455153%2B&amp;org=E02">
           <path clip-path="url(#p0e2927f173)" d="M 862.477058 1435.852166 
L 862.477058 1440.489124 
L 884.797058 1440.489124 
L 884.797058 1435.852166 
z
" style="stroke:#000000;stroke-linejoin:miter;"/>
          </a>
         </g>
         <g id="patch_22">
          <a xlink:href="/Kmer/Path.py?start=19331528%2B&amp;end=42703593-&amp;org=E02">
           <path clip-path="url(#p0e2927f173)" d="M 975.975893 1435.852166 
L 975.975893 1440.489124 
L 998.295893 1131.667685 
L 998.295893 1127.030726 
z
" style="stroke:#000000;stroke-linejoin:miter;"/>
          </a>
         </g>
         <g id="patch_23">
          <a xlink:href="/Kmer/Path.py?start=19331528%2B&amp;end=32642367-&amp;org=E02">
           <path clip-path="url(#p0e2927f173)" d="M 975.975893 1435.852166 
L 975.975893 1440.489124 
L 998.295893 1749.77426 
L 998.295893 1745.137301 
z
" style="stroke:#000000;stroke-linejoin:miter;"/>
          </a>
         </g>
        </g>
       </g>
       <defs>
        <clipPath id="p0e2927f173">
         <rect height="1854.783422" width="2232" x="360" y="527.008289"/>
        </clipPath>
       </defs>
      </g>
     </g>
    </g>
   </g>
  </g>
 </g>
</svg>
